Coordinates
version=1
nRows=38
nColumns=12
inDegrees=yes

Units are S.I. units (second, meters, Newtons, ...)
Angles are in degrees

endheader
time	SC_y	SC_z	SC_x	AC_y	AC_z	AC_x	GH_y	GH_z	GH_yy	EL_x	PS_y
       0.0              -51.07         -4.574           46.5          32.71          8.686         -14.06          150.1          69.63          84.76          33.11          158.9
   0.02269              -51.07          -4.57           46.5          32.71          8.685         -14.06          150.1          69.62          84.77          33.11          158.9
   0.04539              -51.07         -4.565          46.51          32.71          8.684         -14.06          150.0          69.61          84.77          33.12          158.9
   0.06808              -51.07          -4.56          46.51          32.72          8.683         -14.06          150.0           69.6          84.77          33.12          158.9
   0.09077              -51.07         -4.555          46.51          32.72          8.682         -14.06          149.9          69.59          84.78          33.13          158.9
    0.1135              -51.07          -4.55          46.52          32.72          8.681         -14.06          149.9          69.58          84.78          33.13          158.8
    0.1362              -51.07         -4.544          46.52          32.73           8.68         -14.06          149.9          69.57          84.79          33.14          158.8
    0.1588              -51.07         -4.537          46.53          32.73          8.678         -14.06          149.8          69.55           84.8          33.15          158.8
    0.1815              -51.07         -4.531          46.53          32.73          8.677         -14.06          149.8          69.54           84.8          33.15          158.8
    0.2042              -51.07         -4.523          46.54          32.74          8.676         -14.06          149.7          69.52          84.81          33.16          158.8
    0.2269              -51.07         -4.516          46.54          32.74          8.674         -14.06          149.6          69.51          84.82          33.17          158.8
    0.2496              -51.08         -4.507          46.55          32.75          8.672         -14.06          149.6          69.49          84.82          33.18          158.8
    0.2723              -51.08         -4.498          46.56          32.75           8.67         -14.06          149.5          69.47          84.83          33.19          158.8
     0.295              -51.08         -4.489          46.56          32.76          8.668         -14.06          149.4          69.45          84.84           33.2          158.8
    0.3177              -51.08         -4.478          46.57          32.77          8.666         -14.06          149.3          69.43          84.85          33.21          158.7
    0.3404              -51.08         -4.467          46.58          32.77          8.664         -14.06          149.2           69.4          84.86          33.22          158.7
    0.3631              -51.08         -4.454          46.59          32.78          8.661         -14.06          149.1          69.38          84.87          33.23          158.7
    0.3858              -51.08         -4.441           46.6          32.79          8.658         -14.06          149.0          69.35          84.89          33.25          158.7
    0.4085              -51.09         -4.426          46.61           32.8          8.655         -14.06          148.9          69.32           84.9          33.26          158.7
    0.4312              -51.09          -4.41          46.62          32.81          8.652         -14.06          148.8          69.28          84.92          33.28          158.6
    0.4539              -51.09         -4.392          46.63          32.82          8.648         -14.06          148.6          69.24          84.93           33.3          158.6
    0.4765              -51.09         -4.373          46.65          32.83          8.644         -14.06          148.5           69.2          84.95          33.32          158.6
    0.4992               -51.1         -4.352          46.66          32.85          8.639         -14.06          148.3          69.16          84.97          33.34          158.6
    0.5219               -51.1         -4.328          46.68          32.86          8.634         -14.06          148.1          69.11          84.99          33.37          158.5
    0.5446               -51.1         -4.301           46.7          32.88          8.628         -14.06          147.9          69.05          85.02           33.4          158.5
    0.5673              -51.11         -4.272          46.72          32.89          8.622         -14.06          147.6          68.99          85.05          33.43          158.4
      0.59              -51.11         -4.239          46.75          32.92          8.615         -14.06          147.4          68.92          85.08          33.46          158.4
    0.6127              -51.12         -4.201          46.78          32.94          8.607         -14.06          147.1          68.84          85.11           33.5          158.3
    0.6354              -51.12         -4.159          46.81          32.96          8.598         -14.06          146.7          68.75          85.15          33.55          158.3
    0.6581              -51.13         -4.111          46.84          32.99          8.588         -14.06          146.3          68.65           85.2           33.6          158.2
    0.6808              -51.13         -4.057          46.88          33.03          8.577         -14.06          145.9          68.53          85.25          33.66          158.1
    0.7035              -51.14         -3.994          46.93          33.07          8.564         -14.05          145.4           68.4           85.3          33.73          158.0
    0.7262              -51.15         -3.922          46.98          33.11          8.548         -14.05          144.8          68.24          85.37           33.8          157.9
    0.7489              -51.16         -3.838          47.04          33.16           8.53         -14.05          144.1          68.06          85.45          33.89          157.8
    0.7716              -51.17          -3.74          47.12          33.22           8.51         -14.05          143.3          67.85          85.54           34.0          157.7
    0.7942              -51.19         -3.624           47.2           33.3          8.485         -14.05          142.4          67.61          85.65          34.12          157.5
    0.8169              -51.21         -3.486           47.3          33.38          8.456         -14.05          141.2          67.32          85.78          34.27          157.3
    0.8396              -51.23         -3.321          47.42          33.48          8.421         -14.05          139.9          66.96          85.94          34.44          157.1
